# Blender v3.1.0 Alpha OBJ File: ''
# www.blender.org
mtllib cube.mtl
o Cube.001
v -1.000000 1.000000 -1.000000
v 1.000000 1.000000 1.000000
v 1.000000 1.000000 -1.000000
v -1.000000 -1.000000 1.000000
v 1.000000 -1.000000 1.000000
v -1.000000 1.000000 1.000000
v -1.000000 -1.000000 -1.000000
v 1.000000 -1.000000 -1.000000
vt 0.334782 0.000087
vt 0.667870 0.250043
vt 0.334782 0.250043
vt 1.000957 0.500000
vt 0.667870 0.749957
vt 0.667870 0.500000
vt 0.667870 0.999913
vt 0.334782 0.749957
vt 0.334782 0.500000
vt 0.001694 0.749957
vt 0.667870 0.000087
vt 1.000957 0.749957
vt 0.334782 0.999913
vt 0.001694 0.500000
vn 0.0000 1.0000 0.0000
vn 0.0000 -0.0000 1.0000
vn -1.0000 -0.0000 0.0000
vn 0.0000 -1.0000 -0.0000
vn 1.0000 -0.0000 0.0000
vn 0.0000 0.0000 -1.0000
usemtl Default_OBJ
s 1
f 1/1/1 2/2/1 3/3/1
f 2/4/2 4/5/2 5/6/2
f 6/7/3 7/8/3 4/5/3
f 8/9/4 4/5/4 7/8/4
f 3/3/5 5/6/5 8/9/5
f 1/10/6 8/9/6 7/8/6
f 1/1/1 6/11/1 2/2/1
f 2/4/2 6/12/2 4/5/2
f 6/7/3 1/13/3 7/8/3
f 8/9/4 5/6/4 4/5/4
f 3/3/5 2/2/5 5/6/5
f 1/10/6 3/14/6 8/9/6
